<svg width="48" height="48" viewBox="0 0 48 48" fill="none" xmlns="http://www.w3.org/2000/svg">
<g clip-path="url(#clip0_2_73)">
<path d="M34.61 12.15V38.54H40.94C41.6155 38.54 42.2636 38.2731 42.7432 37.7973C43.2227 37.3215 43.4947 36.6755 43.5 36V16.82M13.39 12.15V38.54H7.06C6.3845 38.54 5.73636 38.2731 5.25684 37.7973C4.77732 37.3215 4.50528 36.6755 4.5 36V16.82L13.39 12.15Z" stroke="black" stroke-miterlimit="10"/>
<path d="M24 31.45L43.5 17V13.4C43.4982 12.6717 43.2945 11.9581 42.9116 11.3385C42.5287 10.719 41.9816 10.2177 41.331 9.8903C40.6804 9.56293 39.9518 9.4223 39.2261 9.48403C38.5004 9.54576 37.806 9.80744 37.22 10.24L24 20.06L10.78 10.24C10.194 9.80744 9.49964 9.54576 8.77394 9.48403C8.04823 9.4223 7.31961 9.56293 6.669 9.8903C6.0184 10.2177 5.47127 10.719 5.08838 11.3385C4.70549 11.9581 4.50182 12.6717 4.5 13.4V17L24 31.45Z" stroke="black" stroke-miterlimit="10"/>
</g>
<defs>
<clipPath id="clip0_2_73">
<rect width="48" height="48" fill="white"/>
</clipPath>
</defs>
</svg>
