<svg width="32" height="32" viewBox="0 0 32 32" fill="none" xmlns="http://www.w3.org/2000/svg">
<path d="M5.67497 22.125C4.18608 19.613 3.66528 16.6439 4.21035 13.7752C4.75543 10.9064 6.32888 8.33528 8.63532 6.54441C10.9418 4.75355 13.8226 3.86614 16.7369 4.04878C19.6513 4.23143 22.3988 5.47156 24.4636 7.53637C26.5284 9.60118 27.7685 12.3487 27.9512 15.263C28.1338 18.1774 27.2464 21.0582 25.4556 23.3647C23.6647 25.6711 21.0935 27.2446 18.2248 27.7896C15.356 28.3347 12.387 27.8139 9.87497 26.325V26.325L5.72497 27.5C5.55494 27.5497 5.37467 27.5528 5.20304 27.5089C5.03142 27.465 4.87476 27.3757 4.7495 27.2505C4.62423 27.1252 4.53497 26.9686 4.49107 26.7969C4.44717 26.6253 4.45024 26.445 4.49997 26.275L5.67497 22.125Z" stroke="black" stroke-width="2" stroke-linecap="round" stroke-linejoin="round"/>
<path d="M19.0125 23C17.6967 23.0033 16.3933 22.7466 15.177 22.2446C13.9608 21.7425 12.8557 21.0052 11.9253 20.0748C10.9949 19.1444 10.2575 18.0393 9.75547 16.823C9.25346 15.6068 8.99673 14.3033 9.00003 12.9875C9.00334 12.0614 9.37355 11.1744 10.0296 10.5207C10.6856 9.86702 11.5739 9.49999 12.5 9.5V9.5C12.6528 9.49878 12.8031 9.53877 12.9351 9.61576C13.0671 9.69275 13.1759 9.80389 13.25 9.9375L14.7125 12.4875C14.7995 12.6425 14.8441 12.8177 14.8419 12.9954C14.8397 13.1732 14.7908 13.3472 14.7 13.5L13.525 15.4625C14.1269 16.8014 15.1987 17.8731 16.5375 18.475L18.5 17.3C18.6529 17.2092 18.8269 17.1603 19.0046 17.1581C19.1823 17.1559 19.3575 17.2005 19.5125 17.2875L22.0625 18.75C22.1961 18.8241 22.3073 18.9329 22.3843 19.0649C22.4613 19.1969 22.5013 19.3472 22.5 19.5C22.4968 20.4251 22.1287 21.3115 21.4757 21.9669C20.8227 22.6222 19.9376 22.9934 19.0125 23V23Z" stroke="black" stroke-width="2" stroke-linecap="round" stroke-linejoin="round"/>
</svg>
